<svg width="88" height="60" viewBox="0 0 88 60" fill="none" xmlns="http://www.w3.org/2000/svg">
<g clip-path="url(#clip0_30_123)">
<path d="M87 28.5909C87 37.2705 81.1831 45.0468 72 50.2903C70.4279 51.1879 76.7571 59.1899 75 59.9309C73.0962 60.7338 63.091 54.2615 61 54.8605C55.7857 56.3543 50.0382 57.1818 44 57.1818C20.2518 57.1818 1 44.3812 1 28.5909C1 12.8006 20.2518 0 44 0C67.7482 0 87 12.8006 87 28.5909Z" fill="black"/>
<path d="M42.2305 35.9688C41.5273 35.9688 41.1758 35.7018 41.1758 35.168C41.1758 34.3867 41.4362 33.5143 41.957 32.5508C42.4779 31.5742 43.2135 30.6107 44.1641 29.6602C44.9583 28.8659 45.5638 28.2344 45.9805 27.7656C46.3971 27.2969 46.7487 26.8021 47.0352 26.2812C47.3216 25.7474 47.4648 25.207 47.4648 24.6602C47.4648 22.2513 46.0065 21.0469 43.0898 21.0469C42.4388 21.0469 41.8464 21.1315 41.3125 21.3008C40.7786 21.457 40.2122 21.6719 39.6133 21.9453C39.1966 22.1406 38.9232 22.2383 38.793 22.2383C38.6758 22.2383 38.526 22.1276 38.3438 21.9062C38.1745 21.6719 38.0182 21.4115 37.875 21.125C37.7318 20.8385 37.6602 20.6172 37.6602 20.4609C37.6602 20.0833 37.9727 19.7448 38.5977 19.4453C39.2227 19.1328 39.9974 18.8919 40.9219 18.7227C41.8594 18.5534 42.7643 18.4688 43.6367 18.4688C45.1211 18.4688 46.4036 18.7357 47.4844 19.2695C48.5651 19.7904 49.3789 20.5 49.9258 21.3984C50.4857 22.2839 50.7656 23.2539 50.7656 24.3086C50.7656 25.0898 50.6029 25.8255 50.2773 26.5156C49.9518 27.2057 49.5482 27.8307 49.0664 28.3906C48.5977 28.9375 47.9661 29.6081 47.1719 30.4023C46.4948 31.0664 45.9479 31.6328 45.5312 32.1016C45.1276 32.5573 44.7695 33.0586 44.457 33.6055C44.1576 34.1523 43.9688 34.7188 43.8906 35.3047C43.8646 35.526 43.7604 35.6953 43.5781 35.8125C43.4089 35.9167 43.1289 35.9688 42.7383 35.9688H42.2305ZM42.1328 43.0586C41.638 43.0586 41.2799 43 41.0586 42.8828C40.8372 42.7526 40.7266 42.5573 40.7266 42.2969V40.0117C40.7266 39.5039 41.1953 39.25 42.1328 39.25H42.6992C43.6237 39.25 44.0859 39.5039 44.0859 40.0117V42.2969C44.0859 42.5573 43.9753 42.7526 43.7539 42.8828C43.5326 43 43.181 43.0586 42.6992 43.0586H42.1328Z" fill="white"/>
</g>
<defs>
<clipPath id="clip0_30_123">
<rect width="88" height="60" fill="white"/>
</clipPath>
</defs>
</svg>
