<svg width="88" height="60" viewBox="0 0 88 60" fill="none" xmlns="http://www.w3.org/2000/svg">
<rect x="1.5" y="6.5" width="85" height="45" rx="4.5" stroke="black" stroke-width="3"/>
<rect x="37" y="10" width="6" height="6" rx="1" fill="black"/>
<rect x="29" y="10" width="6" height="6" rx="1" fill="black"/>
<rect x="21" y="10" width="6" height="6" rx="1" fill="black"/>
<rect x="13" y="10" width="6" height="6" rx="1" fill="black"/>
<rect x="5" y="10" width="6" height="6" rx="1" fill="black"/>
<rect x="29" y="18" width="6" height="6" rx="1" fill="black"/>
<rect x="21" y="18" width="6" height="6" rx="1" fill="black"/>
<rect x="13" y="18" width="6" height="6" rx="1" fill="black"/>
<rect x="5" y="18" width="6" height="6" rx="1" fill="black"/>
<rect x="33" y="26" width="6" height="6" rx="1" fill="black"/>
<rect x="25" y="26" width="6" height="6" rx="1" fill="black"/>
<rect x="17" y="26" width="6" height="6" rx="1" fill="black"/>
<rect x="5" y="26" width="10" height="6" rx="1" fill="black"/>
<rect x="37" y="34" width="6" height="6" rx="1" fill="black"/>
<rect x="29" y="34" width="6" height="6" rx="1" fill="black"/>
<rect x="21" y="34" width="6" height="6" rx="1" fill="black"/>
<rect x="21" y="42" width="10" height="6" rx="1" fill="black"/>
<rect x="13" y="42" width="6" height="6" rx="1" fill="black"/>
<rect x="5" y="34" width="14" height="6" rx="1" fill="black"/>
<rect x="5" y="42" width="6" height="6" rx="1" fill="black"/>
<rect x="69" y="34" width="14" height="6" rx="1" fill="black"/>
<rect x="61" y="34" width="6" height="6" rx="1" fill="black"/>
<rect x="77" y="42" width="6" height="6" rx="1" fill="black"/>
<rect x="69" y="42" width="6" height="6" rx="1" fill="black"/>
<rect x="57" y="42" width="10" height="6" rx="1" fill="black"/>
<rect x="53" y="34" width="6" height="6" rx="1" fill="black"/>
<rect x="73" y="26" width="10" height="6" rx="1" fill="black"/>
<rect x="57" y="26" width="6" height="6" rx="1" fill="black"/>
<rect x="65" y="26" width="6" height="6" rx="1" fill="black"/>
<rect x="49" y="26" width="6" height="6" rx="1" fill="black"/>
<rect x="69" y="18" width="14" height="6" rx="1" fill="black"/>
<rect x="61" y="18" width="6" height="6" rx="1" fill="black"/>
<rect x="53" y="18" width="6" height="6" rx="1" fill="black"/>
<rect x="45" y="18" width="6" height="6" rx="1" fill="black"/>
<rect x="45" y="10" width="6" height="6" rx="1" fill="black"/>
<rect x="53" y="10" width="6" height="6" rx="1" fill="black"/>
<rect x="61" y="10" width="6" height="6" rx="1" fill="black"/>
<rect x="69" y="10" width="6" height="6" rx="1" fill="black"/>
<rect x="77" y="10" width="6" height="6" rx="1" fill="black"/>
<rect x="37" y="18" width="6" height="6" rx="1" fill="black"/>
<rect x="41" y="26" width="6" height="6" rx="1" fill="black"/>
<rect x="45" y="34" width="6" height="6" rx="1" fill="black"/>
<rect x="33" y="42" width="22" height="6" rx="1" fill="black"/>
</svg>
