<svg width="88" height="60" viewBox="0 0 88 60" fill="none" xmlns="http://www.w3.org/2000/svg">
<path d="M47.5214 57H35.4872H30C26.6863 57 24 54.3137 24 51V33V15C24 11.6863 26.6863 9 30 9H82C85.3137 9 88 11.6863 88 15V51C88 54.3137 85.3137 57 82 57H47.5214Z" fill="#9D9D9D"/>
<path d="M10.0256 57L12.3846 47.0581H6C2.68629 47.0581 0 44.3718 0 41.0581V6C0 2.68629 2.68629 0 6 0H63C66.3137 0 69 2.6863 69 6V41.0581C69 44.3718 66.3137 47.0581 63 47.0581H25.359L10.0256 57Z" fill="black"/>
<path d="M38 26C38 27.6569 36.6569 29 35 29C33.3431 29 32 27.6569 32 26C32 24.3431 33.3431 23 35 23C36.6569 23 38 24.3431 38 26Z" fill="white"/>
<path d="M28 26C28 27.6569 26.6569 29 25 29C23.3431 29 22 27.6569 22 26C22 24.3431 23.3431 23 25 23C26.6569 23 28 24.3431 28 26Z" fill="white"/>
<path d="M48 26C48 27.6569 46.6569 29 45 29C43.3431 29 42 27.6569 42 26C42 24.3431 43.3431 23 45 23C46.6569 23 48 24.3431 48 26Z" fill="white"/>
</svg>
